<svg width="24" height="24" viewBox="0 0 24 24" fill="none" xmlns="http://www.w3.org/2000/svg">
<path d="M21.7104 3.74002C20.4268 2.47404 18.7107 1.74214 16.9086 1.69202C15.1064 1.64191 13.3523 2.27733 12.0004 3.47002C10.65 2.278 8.89764 1.64289 7.09715 1.69301C5.29665 1.74313 3.58229 2.47473 2.30037 3.74002C-0.209633 6.24002 -0.819633 10.74 2.85037 14.36L10.0004 21.45C10.27 21.7221 10.5909 21.9381 10.9444 22.0855C11.298 22.233 11.6773 22.3088 12.0604 22.3088C12.4434 22.3088 12.8227 22.233 13.1763 22.0855C13.5299 21.9381 13.8507 21.7221 14.1204 21.45L21.2104 14.36C24.8304 10.69 24.2104 6.24002 21.7104 3.74002Z" fill="#FF0044"/>
</svg>
