<svg width="24" height="24" viewBox="0 0 24 24" fill="none" xmlns="http://www.w3.org/2000/svg">
<path d="M19.8502 6.19998L18.2102 4.60998C17.4624 3.87707 16.4572 3.46655 15.4102 3.46655C14.3631 3.46655 13.3579 3.87707 12.6102 4.60998L10.2802 6.86998L5.38016 11.67C5.27336 11.7836 5.19459 11.9205 5.15016 12.07L3.00016 19.88C2.96577 20.0159 2.9636 20.1579 2.99381 20.2947C3.02402 20.4316 3.08577 20.5595 3.17415 20.6683C3.26253 20.7771 3.3751 20.8637 3.50288 20.9213C3.63066 20.9789 3.77012 21.0058 3.91016 21H4.10016L12.1002 18.94C12.2767 18.9134 12.4408 18.8331 12.5702 18.71L17.5702 13.97L19.9002 11.71C20.2746 11.3539 20.5718 10.9246 20.7733 10.4488C20.9748 9.97297 21.0764 9.46082 21.0717 8.94412C21.067 8.42742 20.9562 7.9172 20.746 7.44514C20.5359 6.97308 20.231 6.54925 19.8502 6.19998ZM6.66016 14.2L9.88016 17.32L5.50016 18.48L6.66016 14.2ZM12.0502 16.27L7.79016 12.17L11.7902 8.28998L16.0902 12.46L12.0502 16.27ZM18.4402 10.14L17.5702 10.98L13.2502 6.81998L14.0002 6.05998C14.375 5.70388 14.8731 5.50676 15.3902 5.50998C15.9037 5.50934 16.3978 5.70627 16.7702 6.05998L18.4202 7.65998C18.5905 7.82162 18.7262 8.01625 18.8189 8.23201C18.9116 8.44777 18.9594 8.68015 18.9594 8.91498C18.9594 9.14982 18.9116 9.38219 18.8189 9.59796C18.7262 9.81372 18.5905 10.0083 18.4202 10.17L18.4402 10.14Z" fill="#CBD8E7"/>
</svg>
