<svg width="24" height="24" viewBox="0 0 24 24" fill="none" xmlns="http://www.w3.org/2000/svg">
<path d="M12 4C13.5823 4 15.129 4.46919 16.4446 5.34824C17.7602 6.22729 18.7855 7.47672 19.391 8.93853C19.9965 10.4003 20.155 12.0089 19.8463 13.5607C19.5376 15.1126 18.7757 16.538 17.6569 17.6569C16.538 18.7757 15.1126 19.5376 13.5607 19.8463C12.0089 20.155 10.4003 19.9965 8.93854 19.391C7.47673 18.7855 6.2273 17.7602 5.34825 16.4446C4.4692 15.129 4 13.5823 4 12C4 9.87827 4.84286 7.84344 6.34315 6.34315C7.84344 4.84285 9.87827 4 12 4ZM12 2C10.0222 2 8.08879 2.58649 6.4443 3.6853C4.79981 4.78412 3.51809 6.3459 2.76121 8.17317C2.00433 10.0004 1.8063 12.0111 2.19215 13.9509C2.578 15.8907 3.53041 17.6725 4.92894 19.0711C6.32746 20.4696 8.10929 21.422 10.0491 21.8079C11.9889 22.1937 13.9996 21.9957 15.8268 21.2388C17.6541 20.4819 19.2159 19.2002 20.3147 17.5557C21.4135 15.9112 22 13.9778 22 12C22 10.6868 21.7413 9.38642 21.2388 8.17317C20.7363 6.95991 19.9997 5.85752 19.0711 4.92893C18.1425 4.00035 17.0401 3.26375 15.8268 2.7612C14.6136 2.25866 13.3132 2 12 2Z" fill="#CBD8E7"/>
<path d="M11.0002 15C10.8686 15.0008 10.7381 14.9755 10.6163 14.9258C10.4944 14.876 10.3836 14.8027 10.2902 14.71L8.29019 12.71C8.10188 12.5217 7.99609 12.2663 7.99609 12C7.99609 11.7337 8.10188 11.4783 8.29019 11.29C8.47849 11.1017 8.73388 10.9959 9.00019 10.9959C9.26649 10.9959 9.52188 11.1017 9.71019 11.29L11.0002 12.59L14.2902 9.29C14.4785 9.1017 14.7339 8.99591 15.0002 8.99591C15.2665 8.99591 15.5219 9.1017 15.7102 9.29C15.8985 9.47831 16.0043 9.7337 16.0043 10C16.0043 10.2663 15.8985 10.5217 15.7102 10.71L11.7102 14.71C11.6167 14.8027 11.5059 14.876 11.3841 14.9258C11.2623 14.9755 11.1318 15.0008 11.0002 15Z" fill="#CBD8E7"/>
</svg>
