<svg width="24" height="24" viewBox="0 0 24 24" fill="none" xmlns="http://www.w3.org/2000/svg">
<path d="M12 20.66C11.7197 20.6604 11.444 20.5881 11.2 20.45C9.67 19.55 2 14.79 2 8.87002C2 5.91002 3.5 4.00002 6.21 3.46002C7.20004 3.28369 8.21588 3.31438 9.19347 3.55018C10.1711 3.78597 11.0892 4.22174 11.89 4.83002L12 4.91002L12.16 4.79002C12.9605 4.20057 13.8718 3.77893 14.8393 3.55038C15.8067 3.32183 16.8104 3.2911 17.79 3.46002C20.5 4.00002 22 5.88002 22 8.83002C22 15.02 13.74 19.92 12.8 20.45C12.5573 20.5912 12.2808 20.6638 12 20.66ZM7.47 5.34002C7.17491 5.34137 6.88049 5.36814 6.59 5.42002C4.83 5.76002 4 6.86002 4 8.87002C4 13.52 10.55 17.72 12 18.6C13.3 17.82 20 13.6 20 8.83002C20 6.83002 19.18 5.76002 17.42 5.42002C16.7076 5.30338 15.9791 5.33183 15.278 5.50367C14.5769 5.67551 13.9177 5.98719 13.34 6.42002L12.71 6.87002C12.5066 7.01798 12.2615 7.09768 12.01 7.09768C11.7585 7.09768 11.5134 7.01798 11.31 6.87002L10.72 6.44002C9.78005 5.73928 8.64232 5.35421 7.47 5.34002Z" fill="#CBD8E7"/>
</svg>
