<svg width="24" height="24" viewBox="0 0 24 24" fill="none" xmlns="http://www.w3.org/2000/svg">
<path d="M18 13.17V10.17C18.0231 8.76427 17.5615 7.39345 16.6928 6.28801C15.8242 5.18258 14.6014 4.40994 13.23 4.1H13V3C13 2.73478 12.8947 2.48043 12.7071 2.29289C12.5196 2.10536 12.2652 2 12 2C11.7348 2 11.4805 2.10536 11.2929 2.29289C11.1054 2.48043 11 2.73478 11 3V4.09C9.60296 4.32615 8.33455 5.04908 7.41941 6.13077C6.50427 7.21247 6.00146 8.58312 6.00002 10V13.16C5.41325 13.3674 4.90553 13.7523 4.54718 14.2611C4.18884 14.7699 3.99762 15.3776 4.00002 16V17C4.00002 17.7956 4.31609 18.5587 4.8787 19.1213C5.44131 19.6839 6.20437 20 7.00002 20H10C10.0012 20.3937 10.1185 20.7783 10.3373 21.1056C10.5561 21.433 10.8667 21.6884 11.23 21.84C11.4736 21.9438 11.7353 21.9982 12 22C12.5305 22 13.0392 21.7893 13.4142 21.4142C13.7893 21.0391 14 20.5304 14 20H17C17.7957 20 18.5587 19.6839 19.1213 19.1213C19.684 18.5587 20 17.7956 20 17V16C20.0003 15.3793 19.8082 14.7739 19.45 14.267C19.0918 13.7602 18.5852 13.3769 18 13.17ZM18 17C18 17.2652 17.8947 17.5196 17.7071 17.7071C17.5196 17.8946 17.2652 18 17 18H7.00002C6.73481 18 6.48045 17.8946 6.29292 17.7071C6.10538 17.5196 6.00002 17.2652 6.00002 17V16C6.00002 15.7348 6.10538 15.4804 6.29292 15.2929C6.48045 15.1054 6.73481 15 7.00002 15H8.00002V10C7.99865 9.40263 8.13109 8.81254 8.38762 8.27306C8.64416 7.73357 9.01827 7.2584 9.48248 6.88242C9.94669 6.50645 10.4892 6.23922 11.0702 6.10037C11.6512 5.96151 12.256 5.95455 12.84 6.08C13.7587 6.29789 14.5743 6.82542 15.1498 7.57391C15.7253 8.3224 16.0255 9.2462 16 10.19V15H17C17.2652 15 17.5196 15.1054 17.7071 15.2929C17.8947 15.4804 18 15.7348 18 16V17Z" fill="#CBD8E7"/>
</svg>
