<svg width="24" height="24" viewBox="0 0 24 24" fill="none" xmlns="http://www.w3.org/2000/svg">
<path d="M17.76 7.11998H17V6.67998C17.0132 5.74076 16.6536 4.8346 16 4.15998C15.6673 3.83454 15.2731 3.57853 14.8405 3.40685C14.4078 3.23517 13.9454 3.15125 13.48 3.15998L12.65 3.29998C12.2473 3.38 11.8328 3.38 11.43 3.29998L10.84 3.17998H10.61C10.143 3.17204 9.67897 3.25635 9.24458 3.42807C8.81018 3.5998 8.41395 3.85556 8.07858 4.18071C7.74322 4.50585 7.47532 4.89398 7.29024 5.32286C7.10516 5.75173 7.00654 6.21292 7.00002 6.67998V7.11998H6.26002C5.39358 7.12526 4.56443 7.47316 3.95363 8.08771C3.34283 8.70226 3.00001 9.53352 3.00002 10.4V10.73C2.99836 11.1765 3.08596 11.6188 3.25769 12.031C3.42942 12.4431 3.68181 12.8168 4.00002 13.13V17.19C4.00002 18.2323 4.41408 19.2319 5.15109 19.9689C5.88811 20.7059 6.88772 21.12 7.93002 21.12H16.33C16.812 21.12 17.2892 21.0251 17.7345 20.8406C18.1797 20.6562 18.5843 20.3859 18.9251 20.0451C19.2659 19.7043 19.5362 19.2997 19.7207 18.8544C19.9051 18.4092 20 17.9319 20 17.45V13.16C20.3148 12.8525 20.5653 12.4855 20.737 12.0804C20.9086 11.6752 20.998 11.24 21 10.8V10.37C21 9.50976 20.659 8.68462 20.0517 8.07541C19.4443 7.4662 18.6202 7.12263 17.76 7.11998ZM19 10.35V10.79C19.0022 10.9649 18.9687 11.1385 18.9016 11.3001C18.8346 11.4617 18.7354 11.6079 18.61 11.73C18.4869 11.854 18.3405 11.9523 18.1791 12.0192C18.0178 12.0862 17.8447 12.1204 17.67 12.12H13V9.11998H17.77C18.0962 9.11998 18.4091 9.24957 18.6398 9.48024C18.8704 9.71091 19 10.0238 19 10.35ZM13.5 5.11998C13.8799 5.14006 14.2376 5.30463 14.5 5.57998C14.6546 5.71903 14.7788 5.8885 14.8648 6.07779C14.9509 6.26707 14.9969 6.47208 15 6.67998V7.11998H13V5.21998L13.5 5.11998ZM9.00002 6.67998C8.99917 6.47517 9.03945 6.27228 9.11846 6.08333C9.19748 5.89437 9.31363 5.72321 9.46002 5.57998C9.7401 5.30061 10.1148 5.13646 10.51 5.11998L11 5.21998V7.11998H9.00002V6.67998ZM5.00002 10.4C4.9987 10.2332 5.03025 10.0678 5.09286 9.9132C5.15547 9.75862 5.24791 9.61787 5.36491 9.49901C5.48192 9.38015 5.62119 9.2855 5.77477 9.22047C5.92835 9.15543 6.09324 9.12129 6.26002 9.11998H11V12.12H6.38002C6.01311 12.1173 5.66212 11.9697 5.4036 11.7093C5.14509 11.4489 5.00001 11.0969 5.00002 10.73V10.4ZM6.00002 17.19V14.12H11V19.12H7.92002C7.40989 19.1173 6.92155 18.9128 6.56177 18.5512C6.20198 18.1895 6.00002 17.7001 6.00002 17.19ZM18 14.12V17.45C18.0014 17.6697 17.9591 17.8874 17.8756 18.0906C17.7921 18.2938 17.6692 18.4785 17.5139 18.6338C17.3585 18.7891 17.1739 18.9121 16.9707 18.9956C16.7675 19.079 16.5497 19.1213 16.33 19.12H13V14.12H18Z" fill="#CBD8E7"/>
</svg>
