<svg width="24" height="24" viewBox="0 0 24 24" fill="none" xmlns="http://www.w3.org/2000/svg">
<path d="M12 20C10.4177 20 8.87103 19.5308 7.55543 18.6518C6.23984 17.7727 5.21446 16.5233 4.60896 15.0615C4.00346 13.5997 3.84503 11.9911 4.15371 10.4393C4.4624 8.88743 5.22432 7.46196 6.34314 6.34314C7.46196 5.22432 8.88743 4.4624 10.4393 4.15372C11.9911 3.84503 13.5997 4.00346 15.0615 4.60896C16.5233 5.21446 17.7727 6.23984 18.6518 7.55544C19.5308 8.87103 20 10.4177 20 12C20 14.1217 19.1571 16.1566 17.6569 17.6569C16.1566 19.1571 14.1217 20 12 20ZM12 22C13.9778 22 15.9112 21.4135 17.5557 20.3147C19.2002 19.2159 20.4819 17.6541 21.2388 15.8268C21.9957 13.9996 22.1937 11.9889 21.8078 10.0491C21.422 8.10929 20.4696 6.32746 19.0711 4.92893C17.6725 3.53041 15.8907 2.578 13.9509 2.19215C12.0111 1.80629 10.0004 2.00433 8.17316 2.7612C6.3459 3.51808 4.78412 4.79981 3.6853 6.4443C2.58649 8.08879 2 10.0222 2 12C2 13.3132 2.25865 14.6136 2.7612 15.8268C3.26375 17.0401 4.00034 18.1425 4.92893 19.0711C5.85751 19.9997 6.9599 20.7362 8.17316 21.2388C9.38642 21.7413 10.6868 22 12 22Z" fill="#5F607A"/>
<path d="M11 8.00001C11.2638 8.00377 11.5154 8.1116 11.7 8.30001L14.7 11.3C14.8884 11.4846 14.9962 11.7362 15 12C15.0007 12.1316 14.9755 12.2621 14.9258 12.3839C14.876 12.5058 14.8027 12.6166 14.71 12.71L11.71 15.71C11.5184 15.8559 11.2807 15.9277 11.0405 15.9124C10.8002 15.8971 10.5735 15.7956 10.4021 15.6266C10.2307 15.4576 10.1259 15.2324 10.1072 14.9924C10.0884 14.7523 10.1569 14.5136 10.3 14.32L12.59 12L10.3 9.72001C10.1137 9.53265 10.0092 9.2792 10.0092 9.01501C10.0092 8.75083 10.1137 8.49738 10.3 8.31001C10.3906 8.2149 10.499 8.13856 10.6191 8.08537C10.7393 8.03218 10.8687 8.00318 11 8.00001Z" fill="#5F607A"/>
</svg>
