<svg width="45" height="60" viewBox="0 0 45 60" fill="none" xmlns="http://www.w3.org/2000/svg">
<g clip-path="url(#clip0_173_592)">
<path d="M17.4192 55.1374L23.77 53.1484L29.5764 54.696L30.6651 56.9066L23.77 60L16.6934 56.9066L17.4192 55.1374Z" fill="#BF9167"/>
<path d="M11.4317 21.2647L20.6857 22.3457L23.7704 25.2284L27.0365 22.3457L36.6534 21.2647L43.3671 9.37393L34.476 15.1392L27.3994 13.5177L23.7704 0.00540161L19.7784 13.5177L12.8833 14.959C12.8833 14.959 5.26231 9.91442 5.08086 9.73425C4.89941 9.55409 11.4317 21.2647 11.4317 21.2647Z" fill="url(#paint0_linear_173_592)"/>
<path d="M13.2458 12.6115L18.3265 11.3557L9.25391 6.66608L13.2458 12.6115Z" fill="#FF0044"/>
<path d="M29.2139 11.5305L38.4679 5.58508L34.6574 12.6115L29.2139 11.5305Z" fill="#FF0044"/>
<path d="M39.3551 39.8108L31.6344 26.9201C31.613 26.884 31.5816 26.8548 31.544 26.8359C31.5063 26.8171 31.464 26.8094 31.4221 26.8138L28.0942 27.1435C28.0467 27.1486 28.0022 27.1688 27.9672 27.2011L23.7503 31.053C23.7091 31.0924 23.6541 31.1143 23.5969 31.1143C23.5398 31.1143 23.4849 31.0924 23.4436 31.053L19.742 27.3777C19.7131 27.349 19.6766 27.329 19.6368 27.32L16.1384 26.4895C16.0921 26.4781 16.0434 26.4819 15.9995 26.5005C15.9557 26.519 15.919 26.5512 15.8952 26.5922L9.60249 32.6151L8.25612 39.5244C8.23425 39.5592 8.22266 39.5995 8.22266 39.6406C8.22266 39.6816 8.23425 39.7219 8.25612 39.7568L12.611 46.1544L15.9751 42.6376L14.9281 49.2208C14.9235 49.2503 14.9248 49.2805 14.9319 49.3096C14.9391 49.3387 14.952 49.366 14.9698 49.3901L17.4648 52.6943C17.4943 52.7338 17.5363 52.7621 17.584 52.7749C17.6318 52.7876 17.6825 52.784 17.7279 52.7646L22.5581 50.7828C22.6008 50.765 22.6368 50.7344 22.6612 50.6953C22.6856 50.6563 22.6971 50.6107 22.6942 50.5648L22.5346 48.0245C22.5335 47.9879 22.5232 47.9522 22.5044 47.9207C22.4857 47.8892 22.4592 47.8629 22.4275 47.8443L19.1795 45.9094C19.1543 45.8942 19.1323 45.8742 19.1148 45.8506C19.0974 45.827 19.0849 45.8001 19.0779 45.7716C19.071 45.7432 19.0699 45.7136 19.0745 45.6847C19.0792 45.6557 19.0896 45.628 19.1051 45.6031L19.82 44.4699C19.8357 44.4434 19.8569 44.4207 19.8823 44.4033C19.9077 44.3859 19.9366 44.3742 19.967 44.369L26.4594 43.1817C26.5015 43.1739 26.5451 43.1784 26.5847 43.1947C26.6243 43.211 26.6583 43.2384 26.6825 43.2736L28.0779 45.2734C28.1096 45.3193 28.1227 45.3754 28.1146 45.4305C28.1065 45.4855 28.0779 45.5356 28.0344 45.5707L24.5505 48.3704C24.5269 48.3897 24.5074 48.4135 24.4934 48.4404C24.4794 48.4674 24.471 48.4969 24.4688 48.5271L24.3146 50.8963C24.312 50.9449 24.3255 50.9931 24.353 51.0334C24.3805 51.0738 24.4206 51.1041 24.467 51.1197L29.4624 52.7718C29.5071 52.7869 29.5555 52.7871 29.6003 52.7725C29.6451 52.7579 29.684 52.7292 29.711 52.6907L32.2168 49.2082C32.2359 49.1827 32.2491 49.1533 32.2554 49.1221C32.2617 49.091 32.2609 49.0588 32.2531 49.028L30.8469 42.2737L34.22 47.0282L39.3551 39.8108ZM17.4194 40.9026L17.9638 37.2993C17.9638 37.2993 14.5162 38.9208 14.5162 38.5605C14.5162 38.2001 11.7944 34.0564 11.7944 34.0564L15.242 32.4349L18.3267 34.5969V30.2729C18.3267 29.9126 20.3227 36.3985 20.3227 36.3985L17.4194 40.9026ZM28.1977 37.0039L28.9071 41.7512L26.2507 35.5968L28.1977 30.145L28.0162 34.541L31.2098 33.3051L34.5757 34.1843L31.0283 38.229L28.1977 37.0039Z" fill="#BF9167"/>
<path d="M5.625 30.9882L11.0685 25.5887L5.625 22.3403L0 24.6825L1.27016 32.2493L4.71774 35.4977L5.625 30.9882Z" fill="#BF9167"/>
<path d="M35.3828 25.223L42.4594 36.213L44.9997 29.0064L43.1852 24.142L35.3828 25.223Z" fill="#BF9167"/>
</g>
<defs>
<linearGradient id="paint0_linear_173_592" x1="24.2221" y1="0.00540161" x2="24.2221" y2="25.2284" gradientUnits="userSpaceOnUse">
<stop offset="0.421875" stop-color="#FF0044"/>
<stop offset="1" stop-color="#FFDB7E"/>
</linearGradient>
<clipPath id="clip0_173_592">
<rect width="45" height="60" fill="white"/>
</clipPath>
</defs>
</svg>
